<?xml version="1.0" encoding="UTF-8" standalone="no"?>
<svg
   xmlns:dc="http://purl.org/dc/elements/1.1/"
   xmlns:cc="http://creativecommons.org/ns#"
   xmlns:rdf="http://www.w3.org/1999/02/22-rdf-syntax-ns#"
   xmlns:svg="http://www.w3.org/2000/svg"
   xmlns="http://www.w3.org/2000/svg"
   xmlns:sodipodi="http://sodipodi.sourceforge.net/DTD/sodipodi-0.dtd"
   xmlns:inkscape="http://www.inkscape.org/namespaces/inkscape"
   width="226.77165"
   height="70"
   viewBox="0 0 60 18.520833"
   version="1.1"
   id="svg8"
   inkscape:version="1.0.1 (3bc2e813f5, 2020-09-07)"
   sodipodi:docname="pas-palpable.svg">
  <defs
     id="defs2" />
  <sodipodi:namedview
     id="base"
     pagecolor="#ffffff"
     bordercolor="#666666"
     borderopacity="1.0"
     inkscape:pageopacity="0.0"
     inkscape:pageshadow="2"
     inkscape:zoom="1.4"
     inkscape:cx="312.47003"
     inkscape:cy="211.11157"
     inkscape:document-units="mm"
     inkscape:current-layer="layer1"
     inkscape:document-rotation="0"
     showgrid="false"
     units="px"
     inkscape:window-width="1576"
     inkscape:window-height="968"
     inkscape:window-x="344"
     inkscape:window-y="27"
     inkscape:window-maximized="0" />
  <metadata
     id="metadata5">
    <rdf:RDF>
      <cc:Work
         rdf:about="">
        <dc:format>image/svg+xml</dc:format>
        <dc:type
           rdf:resource="http://purl.org/dc/dcmitype/StillImage" />
        <dc:title></dc:title>
      </cc:Work>
    </rdf:RDF>
  </metadata>
  <g
     inkscape:label="Calque 1"
     inkscape:groupmode="layer"
     id="layer1">
    <g
       aria-label="Pas palpable"
       id="text835"
       style="font-style:normal;font-weight:normal;font-size:9.17222px;line-height:1.25;font-family:sans-serif;fill:#000000;fill-opacity:1;stroke:none;stroke-width:0.264583">
      <path
         d="m 8.8283504,6.9186717 q 0,0.7796387 -0.4035777,1.4308663 Q 8.021195,9.0007657 7.2507285,9.4135156 6.480262,9.8262655 5.4162845,9.8996433 L 5.021879,12.110148 q -0.2293055,1.274939 -1.247422,1.274939 -0.5595054,0 -1.0364608,-0.3302 -0.4677833,-0.3302 -0.7521221,-1.008944 -0.2843388,-0.678745 -0.2843388,-1.669344 0,-1.861961 0.5961943,-3.155244 0.6053665,-1.3024553 1.6143107,-1.9445107 1.0181165,-0.6512277 2.2380218,-0.6512277 0.8621887,0 1.458383,0.3026833 0.6053665,0.3026833 0.9080498,0.8254998 0.3118555,0.5136443 0.3118555,1.164872 z m -3.246966,2.0362329 q 1.8803052,-0.2384778 1.8803052,-1.9536829 0,-0.6053666 -0.4035777,-0.9814276 -0.3944055,-0.3852332 -1.2290775,-0.3852332 -0.9447387,0 -1.6509997,0.5961943 -0.6970887,0.5961943 -1.082322,1.6601718 -0.376061,1.0548054 -0.376061,2.412294 0,0.568678 0.1100667,1.008944 0.1192388,0.440267 0.293511,0.687917 0.1834444,0.238477 0.3485444,0.238477 0.2293055,0 0.3485443,-0.632883 L 4.1230014,9.8721266 q -0.3577166,-0.055033 -0.3118555,-0.045861 -0.2751666,-0.045861 -0.3577166,-0.1651 -0.08255,-0.1284111 -0.08255,-0.3210277 0,-0.2017888 0.1100667,-0.3210277 0.1192389,-0.1192388 0.3210277,-0.1192388 0.091722,0 0.1375833,0.00917 0.2201333,0.036689 0.3393722,0.045861 Q 4.398168,8.2394714 4.6183013,7.0379105 4.6733346,6.7260551 4.8659512,6.597644 5.0677401,6.4600607 5.3337345,6.4600607 q 0.3026832,0 0.4310943,0.1192388 0.1375833,0.1100667 0.1375833,0.3577166 0,0.1467555 -0.018344,0.2384778 z"
         style="font-style:normal;font-variant:normal;font-weight:normal;font-stretch:normal;font-size:9.17222px;font-family:Pacifico;-inkscape-font-specification:Pacifico;fill:#5850ec;fill-opacity:1;stroke-width:0.264583"
         id="path917" />
      <path
         d="m 9.4520376,12.431176 q -0.5686776,0 -0.9080498,-0.41275 -0.3393721,-0.41275 -0.3393721,-1.082322 0,-0.733777 0.3393721,-1.3850051 Q 8.88336,8.890699 9.4428654,8.4962936 10.011543,8.0927159 10.644426,8.0927159 q 0.201789,0 0.265995,0.08255 0.07338,0.073378 0.119238,0.2751666 0.192617,-0.036689 0.403578,-0.036689 0.449439,0 0.449439,0.3210277 0,0.1926166 -0.137583,0.917222 -0.210961,1.0548057 -0.210961,1.4675557 0,0.137583 0.06421,0.220133 0.07338,0.08255 0.183445,0.08255 0.174272,0 0.421922,-0.220133 0.24765,-0.229306 0.669572,-0.733778 0.110066,-0.128411 0.24765,-0.128411 0.119239,0 0.183444,0.110066 0.07338,0.110067 0.07338,0.302684 0,0.366889 -0.174272,0.568677 -0.376061,0.467784 -0.797983,0.788811 -0.421923,0.321028 -0.816328,0.321028 -0.302683,0 -0.559506,-0.201789 -0.247649,-0.210961 -0.376061,-0.568677 -0.476955,0.770466 -1.2015604,0.770466 z m 0.3301999,-0.926394 q 0.2017889,0 0.3852335,-0.238478 0.183444,-0.238478 0.265994,-0.632883 l 0.339372,-1.6876886 q -0.385233,0.00917 -0.715433,0.293511 Q 9.7363764,9.51441 9.5437598,9.973021 q -0.1926166,0.458611 -0.1926166,0.972255 0,0.284339 0.1100666,0.421922 0.1192389,0.137584 0.3210277,0.137584 z"
         style="font-style:normal;font-variant:normal;font-weight:normal;font-stretch:normal;font-size:9.17222px;font-family:Pacifico;-inkscape-font-specification:Pacifico;fill:#5850ec;fill-opacity:1;stroke-width:0.264583"
         id="path919" />
      <path
         d="m 14.340825,12.632965 q -0.476956,0 -0.733778,-0.220133 -0.24765,-0.220134 -0.24765,-0.4953 0,-0.238478 0.174273,-0.41275 0.174272,-0.174272 0.513644,-0.174272 0.119239,0 0.275166,0.02752 0.1651,0.01835 0.24765,0.02752 -0.0092,-0.238478 -0.110066,-0.449439 -0.09172,-0.210961 -0.238478,-0.403578 -0.146755,-0.201788 -0.275167,-0.348544 -0.284338,0.541161 -0.568677,0.898878 -0.275167,0.357716 -0.605367,0.678744 -0.1651,0.1651 -0.348544,0.1651 -0.146756,0 -0.238478,-0.100894 -0.09172,-0.110067 -0.09172,-0.265995 0,-0.183444 0.128411,-0.339372 l 0.119239,-0.146756 q 0.504472,-0.623711 0.761294,-1.027288 0.1651,-0.2659946 0.3302,-0.6328834 0.174272,-0.3668888 0.449439,-0.999772 0.174272,-0.4035777 0.724605,-0.4035777 0.256822,0 0.357717,0.045861 0.100894,0.045861 0.100894,0.1467555 0,0.055033 -0.03669,0.1742722 -0.03669,0.1192389 -0.100894,0.2384777 -0.1651,0.3302 -0.1651,0.5595055 0,0.1375833 0.09172,0.3026832 0.100895,0.1651 0.302683,0.4127499 0.293512,0.385233 0.440267,0.6604 0.155928,0.265994 0.155928,0.587022 0,0.385233 -0.183445,0.733778 -0.174272,0.339372 -0.495299,0.550333 -0.321028,0.210961 -0.733778,0.210961 z"
         style="font-style:normal;font-variant:normal;font-weight:normal;font-stretch:normal;font-size:9.17222px;font-family:Pacifico;-inkscape-font-specification:Pacifico;fill:#5850ec;fill-opacity:1;stroke-width:0.264583"
         id="path921" />
      <path
         d="m 23.577238,10.33991 q 0.119239,0 0.183444,0.110066 0.07338,0.110067 0.07338,0.302684 0,0.366889 -0.174272,0.568677 -0.394406,0.486128 -0.853017,0.797984 -0.449438,0.311855 -1.027288,0.311855 -0.486128,0 -0.788811,-0.348544 -0.522817,0.339372 -1.091494,0.348544 -0.119239,1.770239 -0.541161,2.953455 -0.421923,1.192389 -1.23825,1.192389 -0.4953,0 -0.733778,-0.357717 -0.238478,-0.357717 -0.238478,-0.9906 0,-0.898877 0.41275,-2.100438 0.41275,-1.192389 1.274939,-2.632427 0,-1.3391446 -0.01834,-1.8619611 -0.0092,-0.2659944 0.210961,-0.4219222 0.220133,-0.1559277 0.550333,-0.1559277 0.192616,0 0.275166,0.08255 0.09172,0.073378 0.100895,0.3026832 0,0.2293055 0.0092,0.3393722 0.293511,-0.3668888 0.57785,-0.5228166 0.284339,-0.1650999 0.605366,-0.1650999 0.513645,0 0.834673,0.4127499 0.330199,0.4127499 0.330199,1.082322 0,0.4861272 -0.155927,0.9447382 -0.155928,0.458611 -0.431095,0.834672 0.192617,0.05503 0.321028,0.05503 0.302683,0 0.57785,-0.220133 0.275167,-0.220134 0.706261,-0.733778 0.110067,-0.128411 0.24765,-0.128411 z m -3.632199,1.210733 q 0.3302,-0.07338 0.605366,-0.357717 0.284339,-0.293511 0.449439,-0.715433 0.1651,-0.431094 0.1651,-0.8988774 0,-0.2751667 -0.110067,-0.41275 -0.110066,-0.1467555 -0.293511,-0.1467555 -0.3302,0 -0.797983,0.6970888 -0.0092,0.4035781 -0.0092,1.1832161 0,0.421922 -0.0092,0.651228 z m -1.751894,4.127499 q 0.24765,0 0.412749,-1.082322 0.1651,-1.07315 0.210962,-2.678288 -0.394406,0.917222 -0.623711,1.751894 -0.229306,0.834672 -0.229306,1.403349 0,0.293512 0.07338,0.449439 0.06421,0.155928 0.155928,0.155928 z"
         style="font-style:normal;font-variant:normal;font-weight:normal;font-stretch:normal;font-size:9.17222px;font-family:Pacifico;-inkscape-font-specification:Pacifico;fill:#5850ec;fill-opacity:1;stroke-width:0.264583"
         id="path923" />
      <path
         d="m 24.219282,12.431176 q -0.568677,0 -0.908049,-0.41275 -0.339373,-0.41275 -0.339373,-1.082322 0,-0.733777 0.339373,-1.3850051 0.339372,-0.6603999 0.898877,-1.0548053 0.568678,-0.4035777 1.201561,-0.4035777 0.201789,0 0.265994,0.08255 0.07338,0.073378 0.119239,0.2751666 0.192617,-0.036689 0.403578,-0.036689 0.449439,0 0.449439,0.3210277 0,0.1926166 -0.137584,0.917222 -0.210961,1.0548057 -0.210961,1.4675557 0,0.137583 0.06421,0.220133 0.07338,0.08255 0.183444,0.08255 0.174273,0 0.421923,-0.220133 0.247649,-0.229306 0.669572,-0.733778 0.110066,-0.128411 0.24765,-0.128411 0.119238,0 0.183444,0.110066 0.07338,0.110067 0.07338,0.302684 0,0.366889 -0.174272,0.568677 -0.376062,0.467784 -0.797984,0.788811 -0.421922,0.321028 -0.816327,0.321028 -0.302684,0 -0.559506,-0.201789 -0.24765,-0.210961 -0.376061,-0.568677 -0.476955,0.770466 -1.201561,0.770466 z m 0.3302,-0.926394 q 0.201789,0 0.385234,-0.238478 0.183444,-0.238478 0.265994,-0.632883 l 0.339372,-1.6876886 q -0.385233,0.00917 -0.715433,0.293511 -0.321028,0.2751666 -0.513644,0.7337776 -0.192617,0.458611 -0.192617,0.972255 0,0.284339 0.110067,0.421922 0.119239,0.137584 0.321027,0.137584 z"
         style="font-style:normal;font-variant:normal;font-weight:normal;font-stretch:normal;font-size:9.17222px;font-family:Pacifico;-inkscape-font-specification:Pacifico;fill:#5850ec;fill-opacity:1;stroke-width:0.264583"
         id="path925" />
      <path
         d="m 30.878309,10.33991 q 0.119239,0 0.183444,0.110066 0.07338,0.110067 0.07338,0.302684 0,0.366889 -0.174272,0.568677 -0.394406,0.486128 -0.862189,0.797984 -0.458611,0.311855 -1.045633,0.311855 -0.807156,0 -1.201561,-0.733778 -0.385233,-0.733777 -0.385233,-1.8986492 0,-1.1190108 0.284339,-2.5498772 0.293511,-1.4308663 0.853016,-2.458155 0.568678,-1.0272887 1.348316,-1.0272887 0.440267,0 0.687917,0.4127499 0.256822,0.4035777 0.256822,1.164872 0,1.0914942 -0.605366,2.5315328 -0.605367,1.4400386 -1.641828,2.8525604 0.06421,0.376061 0.210961,0.541161 0.146756,0.155928 0.385233,0.155928 0.376062,0 0.6604,-0.210961 0.284339,-0.220134 0.724606,-0.74295 0.110066,-0.128411 0.24765,-0.128411 z M 29.750126,4.6714777 q -0.210961,0 -0.476956,0.7612943 -0.265994,0.7612943 -0.467783,1.8894774 -0.201789,1.1281831 -0.220133,2.1646439 0.651227,-1.0731497 1.036461,-2.1462995 0.385233,-1.082322 0.385233,-1.9720273 0,-0.6970888 -0.256822,-0.6970888 z"
         style="font-style:normal;font-variant:normal;font-weight:normal;font-stretch:normal;font-size:9.17222px;font-family:Pacifico;-inkscape-font-specification:Pacifico;fill:#5850ec;fill-opacity:1;stroke-width:0.264583"
         id="path927" />
      <path
         d="m 35.29013,10.33991 q 0.119239,0 0.183445,0.110066 0.07338,0.110067 0.07338,0.302684 0,0.366889 -0.174273,0.568677 -0.394405,0.486128 -0.853016,0.797984 -0.449439,0.311855 -1.027289,0.311855 -0.486127,0 -0.788811,-0.348544 -0.522816,0.339372 -1.091494,0.348544 -0.119239,1.770239 -0.541161,2.953455 -0.421922,1.192389 -1.23825,1.192389 -0.4953,0 -0.733777,-0.357717 -0.238478,-0.357717 -0.238478,-0.9906 0,-0.898877 0.41275,-2.100438 0.41275,-1.192389 1.274939,-2.632427 0,-1.3391446 -0.01835,-1.8619611 -0.0092,-0.2659944 0.210961,-0.4219222 0.220133,-0.1559277 0.550333,-0.1559277 0.192617,0 0.275167,0.08255 0.09172,0.073378 0.100894,0.3026832 0,0.2293055 0.0092,0.3393722 0.293511,-0.3668888 0.577849,-0.5228166 0.284339,-0.1650999 0.605367,-0.1650999 0.513644,0 0.834672,0.4127499 0.3302,0.4127499 0.3302,1.082322 0,0.4861272 -0.155928,0.9447382 -0.155927,0.458611 -0.431094,0.834672 0.192617,0.05503 0.321028,0.05503 0.302683,0 0.577849,-0.220133 0.275167,-0.220134 0.706261,-0.733778 0.110067,-0.128411 0.24765,-0.128411 z m -3.632199,1.210733 q 0.3302,-0.07338 0.605367,-0.357717 0.284339,-0.293511 0.449439,-0.715433 0.165099,-0.431094 0.165099,-0.8988774 0,-0.2751667 -0.110066,-0.41275 -0.110067,-0.1467555 -0.293511,-0.1467555 -0.3302,0 -0.797983,0.6970888 -0.0092,0.4035781 -0.0092,1.1832161 0,0.421922 -0.0092,0.651228 z m -1.751894,4.127499 q 0.24765,0 0.41275,-1.082322 0.1651,-1.07315 0.210961,-2.678288 -0.394405,0.917222 -0.623711,1.751894 -0.229305,0.834672 -0.229305,1.403349 0,0.293512 0.07338,0.449439 0.06421,0.155928 0.155928,0.155928 z"
         style="font-style:normal;font-variant:normal;font-weight:normal;font-stretch:normal;font-size:9.17222px;font-family:Pacifico;-inkscape-font-specification:Pacifico;fill:#5850ec;fill-opacity:1;stroke-width:0.264583"
         id="path929" />
      <path
         d="m 35.932177,12.431176 q -0.568678,0 -0.90805,-0.41275 -0.339372,-0.41275 -0.339372,-1.082322 0,-0.733777 0.339372,-1.3850051 0.339372,-0.6603999 0.898878,-1.0548053 0.568677,-0.4035777 1.201561,-0.4035777 0.201788,0 0.265994,0.08255 0.07338,0.073378 0.119239,0.2751666 0.192616,-0.036689 0.403577,-0.036689 0.449439,0 0.449439,0.3210277 0,0.1926166 -0.137583,0.917222 -0.210961,1.0548057 -0.210961,1.4675557 0,0.137583 0.06421,0.220133 0.07338,0.08255 0.183445,0.08255 0.174272,0 0.421922,-0.220133 0.24765,-0.229306 0.669572,-0.733778 0.110067,-0.128411 0.24765,-0.128411 0.119239,0 0.183444,0.110066 0.07338,0.110067 0.07338,0.302684 0,0.366889 -0.174272,0.568677 -0.376061,0.467784 -0.797983,0.788811 -0.421922,0.321028 -0.816328,0.321028 -0.302683,0 -0.559505,-0.201789 -0.24765,-0.210961 -0.376061,-0.568677 -0.476956,0.770466 -1.201561,0.770466 z m 0.3302,-0.926394 q 0.201789,0 0.385233,-0.238478 0.183444,-0.238478 0.265994,-0.632883 l 0.339373,-1.6876886 q -0.385234,0.00917 -0.715434,0.293511 -0.321027,0.2751666 -0.513644,0.7337776 -0.192617,0.458611 -0.192617,0.972255 0,0.284339 0.110067,0.421922 0.119239,0.137584 0.321028,0.137584 z"
         style="font-style:normal;font-variant:normal;font-weight:normal;font-stretch:normal;font-size:9.17222px;font-family:Pacifico;-inkscape-font-specification:Pacifico;fill:#5850ec;fill-opacity:1;stroke-width:0.264583"
         id="path931" />
      <path
         d="m 43.994551,9.5694433 q 0.119239,0 0.183444,0.1192389 0.06421,0.1192389 0.06421,0.3026833 0,0.2293055 -0.06421,0.3577165 -0.06421,0.119239 -0.201789,0.1651 -0.550333,0.192617 -1.210733,0.220133 -0.183444,0.761295 -0.697088,1.229078 -0.504472,0.467783 -1.119011,0.467783 -0.926394,0 -1.348317,-0.706261 -0.421922,-0.706261 -0.421922,-2.045405 0,-1.1832164 0.293511,-2.5682217 0.293511,-1.3941775 0.853017,-2.3664328 0.568677,-0.9814276 1.348316,-0.9814276 0.421922,0 0.678744,0.3668888 0.256823,0.3577166 0.256823,0.9355665 0,0.7521221 -0.284339,1.4950719 -0.284339,0.7429498 -0.944739,1.5592774 0.614539,0.045861 0.999772,0.5136444 0.385233,0.458611 0.458611,1.1373553 0.431095,-0.027517 1.027289,-0.1834444 0.05503,-0.018344 0.128411,-0.018344 z M 41.463018,4.6714777 q -0.183444,0 -0.403578,0.5503332 -0.210961,0.541161 -0.394405,1.4767275 -0.183444,0.9355665 -0.275167,2.0454051 0.605367,-1.1098386 0.963083,-1.9536829 0.366889,-0.8530165 0.366889,-1.5134163 0,-0.2935111 -0.07338,-0.4494388 -0.06421,-0.1559278 -0.183445,-0.1559278 z m -0.476955,6.7874433 q 0.284339,0 0.504472,-0.238478 0.220133,-0.238478 0.293511,-0.687917 -0.284339,-0.192616 -0.440267,-0.504472 -0.146755,-0.3118551 -0.146755,-0.6603995 0,-0.1284111 0.03669,-0.3485444 h -0.02752 q -0.376061,0 -0.632883,0.376061 -0.24765,0.3668889 -0.24765,0.9905999 0,0.522816 0.192616,0.797983 0.201789,0.275167 0.467784,0.275167 z"
         style="font-style:normal;font-variant:normal;font-weight:normal;font-stretch:normal;font-size:9.17222px;font-family:Pacifico;-inkscape-font-specification:Pacifico;fill:#5850ec;fill-opacity:1;stroke-width:0.264583"
         id="path933" />
      <path
         d="m 46.92966,10.33991 q 0.119239,0 0.183445,0.110066 0.07338,0.110067 0.07338,0.302684 0,0.366889 -0.174272,0.568677 -0.394405,0.486128 -0.862188,0.797984 -0.458611,0.311855 -1.045634,0.311855 -0.807155,0 -1.20156,-0.733778 -0.385234,-0.733777 -0.385234,-1.8986492 0,-1.1190108 0.284339,-2.5498772 0.293511,-1.4308663 0.853017,-2.458155 0.568677,-1.0272887 1.348316,-1.0272887 0.440267,0 0.687917,0.4127499 0.256822,0.4035777 0.256822,1.164872 0,1.0914942 -0.605367,2.5315328 -0.605366,1.4400386 -1.641827,2.8525604 0.06421,0.376061 0.210961,0.541161 0.146755,0.155928 0.385233,0.155928 0.376061,0 0.6604,-0.210961 0.284339,-0.220134 0.724605,-0.74295 0.110067,-0.128411 0.24765,-0.128411 z M 45.801477,4.6714777 q -0.210961,0 -0.476955,0.7612943 -0.265995,0.7612943 -0.467784,1.8894774 -0.201788,1.1281831 -0.220133,2.1646439 0.651228,-1.0731497 1.036461,-2.1462995 0.385233,-1.082322 0.385233,-1.9720273 0,-0.6970888 -0.256822,-0.6970888 z"
         style="font-style:normal;font-variant:normal;font-weight:normal;font-stretch:normal;font-size:9.17222px;font-family:Pacifico;-inkscape-font-specification:Pacifico;fill:#5850ec;fill-opacity:1;stroke-width:0.264583"
         id="path935" />
      <path
         d="m 49.727171,10.615076 q 0.119239,0 0.183445,0.110067 0.07338,0.110067 0.07338,0.302683 0,0.3302 -0.155927,0.568678 -0.256823,0.394405 -0.678745,0.614539 -0.41275,0.220133 -0.990599,0.220133 -0.880534,0 -1.366661,-0.522817 -0.486128,-0.531988 -0.486128,-1.430866 0,-0.6328831 0.265994,-1.1740441 0.265995,-0.5503332 0.733778,-0.8713609 0.476955,-0.3210277 1.07315,-0.3210277 0.531989,0 0.853016,0.3210277 0.321028,0.3118555 0.321028,0.8530165 0,0.6328832 -0.458611,1.0914945 -0.449439,0.449439 -1.540933,0.715433 0.220133,0.421922 0.74295,0.421922 0.376061,0 0.614539,-0.174272 0.24765,-0.174272 0.568677,-0.587022 0.110067,-0.137584 0.24765,-0.137584 z M 48.222927,9.0099379 q -0.339372,0 -0.57785,0.3944055 -0.229305,0.3944054 -0.229305,0.9539106 v 0.01835 q 0.541161,-0.128411 0.853016,-0.3852335 0.311856,-0.2568222 0.311856,-0.5961944 0,-0.1742721 -0.100895,-0.2751666 -0.09172,-0.1100666 -0.256822,-0.1100666 z"
         style="font-style:normal;font-variant:normal;font-weight:normal;font-stretch:normal;font-size:9.17222px;font-family:Pacifico;-inkscape-font-specification:Pacifico;fill:#5850ec;fill-opacity:1;stroke-width:0.264583"
         id="path937" />
    </g>
  </g>
</svg>
